<?xml version="1.0" standalone="no"?>
<!DOCTYPE svg PUBLIC "-//W3C//DTD SVG 20010904//EN"
 "http://www.w3.org/TR/2001/REC-SVG-20010904/DTD/svg10.dtd">
<svg version="1.0" xmlns="http://www.w3.org/2000/svg"
 width="1095.000000pt" height="228.000000pt" viewBox="0 0 1095.000000 228.000000"
 preserveAspectRatio="xMidYMid meet">

<g transform="translate(0.000000,228.000000) scale(0.100000,-0.100000)"
fill="#000000" stroke="none">
<path d="M4690 1684 c-201 -54 -331 -186 -390 -396 -29 -102 -29 -301 -1 -411
53 -204 175 -328 368 -373 101 -24 312 -15 413 18 l75 24 3 136 3 136 -98 -35
c-89 -31 -106 -33 -193 -31 -113 4 -158 22 -201 82 -45 61 -63 135 -63 256 0
172 47 279 144 328 78 39 204 24 351 -42 14 -6 25 14 64 114 27 68 44 125 39
130 -17 16 -111 49 -187 64 -94 20 -254 20 -327 0z"/>
<path d="M8014 1685 c-135 -29 -263 -123 -323 -235 -54 -102 -74 -195 -74
-355 0 -111 5 -156 21 -218 41 -151 122 -258 242 -321 89 -47 177 -66 310 -66
286 0 459 112 538 348 24 72 26 89 26 257 0 168 -2 185 -26 257 -61 184 -184
295 -366 334 -83 17 -267 17 -348 -1z m298 -274 c82 -56 111 -137 112 -311 1
-159 -17 -226 -77 -286 -106 -105 -290 -77 -356 55 -40 79 -53 246 -30 365 17
82 64 154 119 184 62 33 179 29 232 -7z"/>
<path d="M1030 1094 l0 -596 293 4 c260 4 299 7 354 25 159 53 242 144 259
284 15 131 -36 231 -145 286 l-64 32 39 16 c93 38 144 126 144 246 0 61 -5 85
-25 126 -67 134 -215 172 -667 173 l-188 0 0 -596z m504 332 c45 -19 63 -63
47 -117 -16 -54 -68 -78 -163 -79 l-68 0 0 105 0 105 75 0 c42 0 90 -6 109
-14z m-22 -437 c83 -22 118 -93 85 -170 -21 -51 -65 -69 -166 -69 l-81 0 0
125 0 125 63 0 c34 0 79 -5 99 -11z"/>
<path d="M2149 1686 c-2 -2 -3 -270 -1 -595 l2 -591 385 0 385 0 0 130 0 130
-230 0 -230 0 0 463 1 462 -154 3 c-84 1 -155 1 -158 -2z"/>
<path d="M3341 1598 c-121 -368 -351 -1083 -351 -1089 0 -5 78 -9 173 -9 l172
0 29 110 29 110 195 -2 195 -3 18 -65 c9 -36 22 -84 28 -107 l12 -43 173 0
174 0 -113 343 c-61 188 -149 456 -195 595 l-83 252 -213 0 -212 0 -31 -92z
m305 -343 c31 -121 59 -231 61 -245 l5 -25 -124 3 -124 3 61 244 c33 133 61
242 62 241 1 -1 27 -100 59 -221z"/>
<path d="M5400 1095 l0 -595 160 0 160 0 2 202 3 203 44 24 c25 14 47 20 49
15 2 -5 54 -106 115 -224 l112 -215 178 -3 c97 -1 177 1 177 4 0 4 -79 149
-177 322 -97 173 -176 319 -176 326 0 6 82 127 181 268 100 142 182 260 182
263 0 4 -78 5 -172 3 l-173 -3 -79 -115 c-43 -63 -121 -177 -172 -252 l-94
-138 -2 253 -3 252 -157 3 -158 3 0 -596z"/>
<path d="M6540 1094 l0 -596 293 4 c308 5 342 10 440 60 132 67 199 211 167
361 -16 80 -60 134 -139 174 l-64 32 39 16 c93 38 144 126 144 246 0 61 -5 85
-26 127 -66 133 -214 171 -661 172 l-193 0 0 -596z m509 332 c28 -15 51 -53
51 -87 0 -67 -67 -109 -175 -109 l-65 0 0 105 0 105 80 0 c51 0 91 -5 109 -14z
m-24 -437 c57 -14 86 -47 92 -102 7 -57 -17 -104 -62 -123 -20 -8 -68 -14
-115 -14 l-80 0 0 125 0 125 61 0 c33 0 80 -5 104 -11z"/>
<path d="M8880 1686 c0 -2 49 -80 108 -172 60 -93 143 -222 184 -288 l76 -118
-36 -57 c-20 -31 -107 -166 -194 -299 -87 -134 -158 -246 -158 -248 0 -2 80
-4 178 -4 l178 0 114 186 c92 149 116 183 125 171 6 -8 58 -92 115 -186 l105
-170 183 -1 c100 0 182 2 182 5 0 3 -88 131 -195 285 -107 153 -196 283 -197
287 -2 5 77 137 174 294 98 157 180 293 183 302 6 14 -12 15 -171 14 l-178 -2
-47 -80 c-25 -44 -72 -127 -104 -183 l-57 -104 -38 64 c-20 34 -69 118 -109
186 l-72 122 -174 0 c-96 0 -175 -2 -175 -4z"/>
</g>
</svg>
